#define panda_width 256
#define panda_height 256
static unsigned short panda_bits[] = {
   0x0000, 0x0000, 0x0000, 0x0000, 0x0000, 0x0000, 0x0000, 0x0000, 0x0000,
   0x0000, 0x0000, 0x0000, 0x0000, 0x0000, 0x0000, 0x0000, 0x787e, 0x041c,
   0x0000, 0x0000, 0x0000, 0x0000, 0x0000, 0x0000, 0x0000, 0x0000, 0x0000,
   0x0000, 0x0000, 0x0000, 0x0000, 0x0000, 0x03fe, 0x1f74, 0x03c0, 0x0000,
   0x0000, 0x0000, 0x0000, 0x0000, 0x0000, 0x0000, 0x0000, 0x0000, 0x0000,
   0x0000, 0x0000, 0x0000, 0x7ffe, 0x2920, 0x0ff0, 0x3ffc, 0x0000, 0x0000,
   0x0000, 0x0000, 0x0000, 0x0000, 0x0000, 0x0000, 0x0000, 0x0000, 0x0000,
   0x0000, 0xfffe, 0x8007, 0x1fa8, 0xffff, 0xe000, 0x0003, 0x0000, 0x0000,
   0x0000, 0x0000, 0x0000, 0x0000, 0x0000, 0x0000, 0x0000, 0x0000, 0xfffe,
   0x953f, 0xa822, 0xffff, 0xfc03, 0x001f, 0x0000, 0x0000, 0x0000, 0x0000,
   0x0000, 0x0000, 0x0000, 0x0000, 0x0000, 0x0000, 0xfffe, 0x17ff, 0x8500,
   0xfff4, 0xff07, 0x007f, 0x7fe0, 0x0000, 0x0000, 0x0000, 0x0000, 0x0000,
   0x0000, 0x0000, 0x0000, 0x0000, 0xfffe, 0x1fff, 0x2840, 0xfa01, 0xff8f,
   0x00ff, 0xfffc, 0x0001, 0x0000, 0x0000, 0x0000, 0x0000, 0x0000, 0x0000,
   0x0000, 0x0000, 0xfffc, 0x7fff, 0x0088, 0x8080, 0xff90, 0x01ff, 0xfffe,
   0x0007, 0x0000, 0x0000, 0x0000, 0x0000, 0x0000, 0x0000, 0x0000, 0x0000,
   0xfffe, 0xffff, 0x0009, 0x2a90, 0xe825, 0x83ff, 0xffff, 0x001f, 0x0000,
   0x0000, 0x0000, 0x0000, 0x0000, 0x0000, 0x0000, 0x0000, 0xfffc, 0xffff,
   0x0003, 0x844a, 0x9290, 0xc3fe, 0xffff, 0x003f, 0x0000, 0x0000, 0x0000,
   0x0000, 0x0000, 0x0000, 0x0000, 0x0000, 0xfffc, 0xffff, 0x6007, 0x0009,
   0x9000, 0xe7f4, 0xffff, 0x007f, 0x0000, 0x0000, 0x0000, 0x0000, 0x0000,
   0x0000, 0x0000, 0x0000, 0xfffc, 0xffff, 0xffef, 0x0017, 0x0000, 0xf7d2,
   0xffff, 0x00ff, 0x0000, 0x0000, 0x0000, 0x0000, 0xf800, 0x0fff, 0x0000,
   0x0000, 0xfffc, 0xffff, 0xffff, 0x007f, 0x0000, 0xfe80, 0xffff, 0x00ff,
   0x0000, 0x0000, 0x0000, 0x0000, 0xff00, 0x7fff, 0x0000, 0x0000, 0xfff8,
   0xffdf, 0xffff, 0x03ff, 0x0000, 0xfa20, 0xffff, 0x01ff, 0x0000, 0x0000,
   0x0000, 0x0000, 0xffc0, 0xffff, 0x0003, 0x0000, 0xfff8, 0xfebb, 0xffff,
   0x0fff, 0x0000, 0xf480, 0xeabf, 0x01ff, 0x0000, 0x0000, 0x0000, 0x0000,
   0xfff0, 0xffff, 0x000f, 0x0000, 0xfff8, 0xfdf6, 0xffff, 0x3fff, 0x0000,
   0xc800, 0xdfdf, 0x225e, 0x2222, 0x0000, 0x0000, 0x0000, 0xfffc, 0xffff,
   0x003f, 0x0000, 0xfff8, 0xffae, 0xffff, 0x7fff, 0x0000, 0x9000, 0x92bb,
   0xa490, 0x48a4, 0x0004, 0x0000, 0x0000, 0xffff, 0xffff, 0x007f, 0x0000,
   0xfff8, 0xfff5, 0xffff, 0xffff, 0x0001, 0x4000, 0x442e, 0x1222, 0x8509,
   0x0112, 0x0000, 0x8000, 0xffff, 0xffff, 0x01ff, 0x0000, 0x5ff8, 0xffdf,
   0xffff, 0xffff, 0x0003, 0x8000, 0x94a0, 0x24a4, 0x28a9, 0x0852, 0x0000,
   0xc000, 0xffff, 0xffff, 0x03ff, 0x0000, 0xfff0, 0xfff5, 0xffff, 0xffff,
   0x0007, 0x0000, 0x424a, 0x9112, 0x4504, 0x9284, 0x0000, 0xf000, 0xffff,
   0xffff, 0x07ff, 0x0000, 0x5ff2, 0xffff, 0xffff, 0xffff, 0x000f, 0x4000,
   0x9492, 0x0244, 0x4850, 0x9229, 0x0004, 0xf800, 0xffff, 0xffff, 0x0fff,
   0x0000, 0xffe0, 0xfffa, 0xffff, 0xffff, 0x001f, 0x2800, 0x4249, 0x0000,
   0x0000, 0x4944, 0x0012, 0xfc00, 0xffff, 0xffff, 0x1fff, 0x0000, 0xbfe4,
   0xffff, 0xffff, 0xffff, 0x003f, 0x4200, 0x0442, 0x0000, 0x0000, 0x8900,
   0x00a4, 0xfc00, 0xffff, 0xffff, 0x3fff, 0x0000, 0xdfe0, 0xfffe, 0xffff,
   0xffff, 0x007f, 0x14a0, 0x0009, 0x0000, 0x0000, 0x1000, 0x0509, 0xfe00,
   0xffff, 0xffff, 0x7fff, 0x0000, 0xdfe0, 0xffff, 0xffff, 0xffff, 0x00ff,
   0x2488, 0x0001, 0x0000, 0x0000, 0x0000, 0x1051, 0xff00, 0xffff, 0xffff,
   0xffff, 0x0000, 0xfff0, 0xffff, 0xffff, 0xffff, 0x01ff, 0x1252, 0x0000,
   0x0000, 0x0000, 0x0000, 0x2524, 0xff81, 0xffff, 0xffff, 0xffff, 0x0000,
   0xdfe0, 0xffff, 0xffff, 0xffff, 0x81ff, 0x0244, 0x0000, 0x0000, 0x0000,
   0x0000, 0x4940, 0xff80, 0xffff, 0xffff, 0xffff, 0x0001, 0xffe0, 0xffff,
   0xaabf, 0xffff, 0x53ff, 0x0012, 0x0000, 0x0000, 0x0000, 0x0000, 0x9200,
   0xffca, 0x7fff, 0xffd5, 0xffff, 0x0003, 0xffc8, 0xffff, 0x7bf7, 0xfff5,
   0x83ff, 0x0024, 0x0000, 0x0000, 0x0000, 0x0000, 0x9000, 0xffc8, 0xd7ff,
   0xfabf, 0xffff, 0x0003, 0xff90, 0xffff, 0xaeaf, 0xffdf, 0x54ff, 0x0002,
   0x0000, 0x0000, 0x0000, 0x0000, 0x4000, 0xff12, 0xbfff, 0xf7ea, 0xffff,
   0x0007, 0xff84, 0xffff, 0x7bfd, 0xfff5, 0x443f, 0x0000, 0x0000, 0x0000,
   0x0000, 0x0000, 0x0000, 0xfd22, 0xeaff, 0xdd5d, 0xffff, 0x0007, 0xff08,
   0xffff, 0xed56, 0xffaf, 0x12af, 0x0000, 0x0000, 0x0000, 0x0000, 0x0000,
   0x0000, 0xf454, 0x5fff, 0x7777, 0xffff, 0x000f, 0xff08, 0xdfff, 0xaddd,
   0xfeba, 0x120b, 0x0000, 0x0000, 0x0000, 0x0000, 0x0000, 0x0000, 0xe940,
   0xf55f, 0xd6ed, 0xffff, 0x000f, 0xff00, 0x7fff, 0x77bb, 0xfdef, 0x0453,
   0x0000, 0x0000, 0x0000, 0x0000, 0x0000, 0x0000, 0xd220, 0xaf7f, 0xbbb6,
   0xfffe, 0x000f, 0xfc08, 0x7fff, 0xeeb7, 0x7dba, 0x0092, 0x0000, 0x0000,
   0x0000, 0x0000, 0x0000, 0x0000, 0x0480, 0xfaef, 0xf76e, 0xfffd, 0x001f,
   0xf900, 0xefff, 0xddfa, 0xbbd7, 0x0024, 0x0000, 0x0000, 0x0000, 0x0000,
   0x0000, 0x0000, 0x5200, 0xd7da, 0xadbd, 0xfff6, 0x001f, 0xf804, 0xafff,
   0x5b57, 0x977d, 0x0024, 0x0000, 0x0000, 0x0000, 0x0000, 0x0000, 0x0000,
   0x4400, 0xbd52, 0xfb75, 0xfffe, 0x001f, 0xf840, 0x7fff, 0xf6fd, 0x25ab,
   0x0012, 0x0000, 0x0000, 0x0000, 0x0000, 0x0000, 0x0000, 0x9000, 0xd6f4,
   0xadef, 0xfffb, 0x001f, 0xfc04, 0xd7ff, 0x5ed7, 0x4b7b, 0x0002, 0x0000,
   0x0000, 0x0000, 0x0000, 0x0000, 0x0000, 0x1000, 0x7d81, 0xfbad, 0xfff6,
   0x003f, 0xfc48, 0x7bff, 0xb5dd, 0x90ad, 0x0000, 0x0000, 0x0000, 0x0000,
   0x0000, 0x0000, 0x0000, 0x4000, 0xd6aa, 0x5776, 0xffdb, 0x003f, 0xfc00,
   0xd7ff, 0xb7b5, 0x92fb, 0x0000, 0x0000, 0x0000, 0x0000, 0x0000, 0x0000,
   0x0000, 0x0000, 0xdd02, 0xfd6e, 0xfffb, 0x003f, 0xfc24, 0xbfff, 0xfedf,
   0x492e, 0x0000, 0x0000, 0x0000, 0x0000, 0x0000, 0x0000, 0x0000, 0x0000,
   0x7a54, 0xabbb, 0xffee, 0x003f, 0xfc00, 0xb5ff, 0xaada, 0x092d, 0x0000,
   0x0000, 0x0000, 0x0000, 0x0000, 0x0000, 0x0000, 0x0000, 0xd148, 0xef77,
   0xffed, 0x003f, 0xfc10, 0xefff, 0xf7bd, 0x0496, 0x0000, 0x0000, 0x0000,
   0x0000, 0x0000, 0x0000, 0x0000, 0x0000, 0x6a20, 0xbaed, 0xffbb, 0x003f,
   0xfc20, 0x5bff, 0xdd77, 0x0115, 0x0000, 0x0000, 0x0000, 0x0000, 0x0000,
   0x0000, 0x0000, 0x0000, 0xc880, 0x6fad, 0xfff7, 0x003f, 0xfc10, 0xfdff,
   0x6bda, 0x0223, 0x0000, 0x0000, 0x0000, 0x0000, 0x0000, 0x0000, 0x0000,
   0x0000, 0x5240, 0xb57f, 0xffed, 0x003f, 0xfe00, 0xabff, 0x6f5b, 0x00a5,
   0x0000, 0x0000, 0x0000, 0x0000, 0x0000, 0x0000, 0x0000, 0x0000, 0x4480,
   0xbfd5, 0xffdd, 0x003f, 0xfc10, 0x7fff, 0xbaef, 0x0008, 0x0000, 0x0000,
   0x0000, 0x0000, 0x0000, 0x0000, 0x0000, 0x0000, 0x1200, 0xeabf, 0xfff6,
   0x003f, 0xfe10, 0xebff, 0xb7ba, 0x0052, 0x0000, 0x0000, 0x0000, 0x0000,
   0x0000, 0x0000, 0x0000, 0x0000, 0x5200, 0xdee8, 0xffdd, 0x003f, 0xfc00,
   0xdbff, 0x5eef, 0x0004, 0x0000, 0x0000, 0x0000, 0x0000, 0x0000, 0x0000,
   0x0000, 0x0000, 0x8800, 0xb5de, 0xffeb, 0x003f, 0xfe10, 0x5bff, 0x55ad,
   0x0009, 0x0000, 0x0000, 0x0000, 0x0000, 0x0000, 0x0000, 0x0000, 0x0000,
   0x2000, 0xb758, 0xfffe, 0x003f, 0xfc00, 0x7fff, 0x077b, 0x0002, 0x0000,
   0x0000, 0x0000, 0x0000, 0x0000, 0x0000, 0x0000, 0x0000, 0x4000, 0xfdf1,
   0xffd5, 0x003f, 0xfd10, 0x6bff, 0x56ef, 0x0002, 0x0000, 0x0000, 0x0000,
   0x0000, 0x0000, 0x0000, 0x0000, 0x0000, 0x0000, 0x5745, 0xffff, 0x003f,
   0xf800, 0xdfff, 0x4bb5, 0x0000, 0x0000, 0x0000, 0x0000, 0x0000, 0x0000,
   0x0000, 0x0000, 0x0000, 0x4000, 0xfda8, 0xffea, 0x001f, 0xf910, 0x77ff,
   0x496f, 0x0001, 0x0000, 0x0000, 0x0000, 0x0000, 0x0000, 0x0000, 0x0000,
   0x0000, 0x8000, 0xd592, 0xfffe, 0x001f, 0xf840, 0xdfff, 0x22ba, 0x0000,
   0x0000, 0x0000, 0x0000, 0x0000, 0x0000, 0x0000, 0x0000, 0x0000, 0x0000,
   0xef48, 0xfff5, 0x001f, 0xf090, 0xbfff, 0x24f7, 0x0000, 0x0000, 0x0000,
   0x0000, 0x0000, 0x0000, 0x0000, 0x0000, 0x0000, 0x0000, 0x5a12, 0xffff,
   0x000f, 0xf040, 0x7fff, 0x092d, 0x0000, 0x0000, 0x0000, 0x0000, 0x0000,
   0x0000, 0x0000, 0x0000, 0x0000, 0x0000, 0xfd48, 0xfffa, 0x000f, 0xf080,
   0xffff, 0x127b, 0x0000, 0x0000, 0x0000, 0x0000, 0x0000, 0x0000, 0x0000,
   0x0000, 0x0000, 0x0000, 0xa910, 0xffff, 0x000f, 0xe020, 0x7fff, 0x0917,
   0x0000, 0x0000, 0x0000, 0x0000, 0x0000, 0x0000, 0x0000, 0x0000, 0x0000,
   0x0000, 0x7ca0, 0xffff, 0x0007, 0xe040, 0xffff, 0x012e, 0x0000, 0x0000,
   0x0000, 0x0000, 0x0000, 0x0000, 0x0000, 0x0000, 0x0000, 0x0000, 0xd080,
   0xffff, 0x0007, 0xc020, 0xffff, 0x048b, 0x0000, 0x0000, 0x0000, 0x0000,
   0x0000, 0x0000, 0x0000, 0x0000, 0x0000, 0x0000, 0xf240, 0xffff, 0x0003,
   0xe040, 0xffff, 0x0097, 0x0000, 0x0000, 0x0000, 0x0000, 0x0000, 0x0000,
   0x0000, 0x0000, 0x0000, 0x0000, 0xe240, 0xffff, 0x0003, 0xe020, 0xffff,
   0x004b, 0x0000, 0x0000, 0x0000, 0x0000, 0x0000, 0x0000, 0x0000, 0x0000,
   0x0000, 0x0000, 0xc900, 0xffff, 0x0001, 0xe040, 0xffff, 0x0093, 0x0000,
   0x0000, 0x0000, 0x0000, 0x0000, 0x0000, 0x0000, 0x0000, 0x0000, 0x0000,
   0xd200, 0xffff, 0x0000, 0xe000, 0xffff, 0x0045, 0x0000, 0x0000, 0x0000,
   0x0000, 0x0000, 0x0000, 0x0000, 0x0000, 0x0000, 0x0000, 0xc400, 0xffff,
   0x0000, 0xf040, 0xffff, 0x0014, 0x0000, 0x0000, 0x0000, 0x0000, 0x0000,
   0x0000, 0x0000, 0x0000, 0x0000, 0x0000, 0x8800, 0x7fff, 0x0000, 0xf000,
   0xffff, 0x0022, 0x0000, 0x0000, 0x0000, 0x0000, 0x0000, 0x0000, 0x0000,
   0x0000, 0x0000, 0x0000, 0x2400, 0x3fff, 0x0000, 0xf020, 0xffff, 0x0008,
   0x0000, 0x0000, 0x0000, 0x0000, 0x0000, 0x0000, 0x0000, 0x0000, 0x0000,
   0x0000, 0x2400, 0x1fff, 0x0000, 0xf040, 0x3fff, 0x0005, 0x0000, 0x0000,
   0x0000, 0x0000, 0x0000, 0x0000, 0x0000, 0x0000, 0x0000, 0x0000, 0x9000,
   0x0ffe, 0x0000, 0xf010, 0x7fff, 0x0008, 0x0000, 0x0000, 0x0000, 0x0000,
   0x0000, 0x0000, 0x0000, 0x0000, 0x0000, 0x0000, 0x2000, 0x07fc, 0x0000,
   0xf040, 0x9fff, 0x0002, 0x0000, 0x0000, 0x0000, 0x0000, 0x0000, 0x0000,
   0x0000, 0x0000, 0x0000, 0x0000, 0x4000, 0x03fd, 0x0000, 0xf010, 0x3fff,
   0x0002, 0x0000, 0x0000, 0x0000, 0x0000, 0x0000, 0x0000, 0x0000, 0x0000,
   0x0000, 0x0000, 0x0000, 0x01f8, 0x0000, 0xe040, 0x8fff, 0x0000, 0x0000,
   0x0000, 0x0000, 0x0000, 0x0000, 0x0000, 0x0000, 0x0000, 0x0000, 0x0000,
   0x4000, 0x0075, 0x0000, 0xe010, 0x97ff, 0x0002, 0x0000, 0x0000, 0x0000,
   0x0000, 0x0000, 0x0000, 0x0000, 0x0000, 0x0000, 0x0000, 0x8000, 0x0030,
   0x0000, 0xe040, 0x57ff, 0x0000, 0x0000, 0x0000, 0x0000, 0x0000, 0x0000,
   0x0000, 0x0000, 0x0000, 0x0000, 0x0000, 0x0000, 0x0005, 0x0000, 0xe000,
   0x87ff, 0x0000, 0x0000, 0x0000, 0x0000, 0x0000, 0x0000, 0x0000, 0x0000,
   0x0000, 0x0000, 0x0000, 0x0000, 0x0008, 0x0000, 0xe040, 0x53ff, 0x0000,
   0x0000, 0x0000, 0x0000, 0x0000, 0x0000, 0x0000, 0x0000, 0x0000, 0x0000,
   0x0000, 0x0000, 0x0025, 0x0000, 0xc000, 0x0bff, 0x0000, 0x0000, 0x0000,
   0x0000, 0x0000, 0x0000, 0x0000, 0x0000, 0x0000, 0x0000, 0x0000, 0x0000,
   0x0008, 0x0000, 0xc040, 0x50ff, 0x0000, 0x0000, 0x0000, 0x0000, 0x0000,
   0x0000, 0x0000, 0x0000, 0x0000, 0x0000, 0x0000, 0x0000, 0x0052, 0x0000,
   0x8020, 0x05ff, 0x0000, 0x0000, 0x0000, 0x0000, 0x0000, 0x0000, 0x0000,
   0x0000, 0x0000, 0x0000, 0x0000, 0x0000, 0x0010, 0x0000, 0x8080, 0x28ff,
   0x0000, 0x0000, 0x0000, 0x0000, 0x0000, 0x0000, 0x0000, 0x0000, 0x0000,
   0x0000, 0x0000, 0x0000, 0x00a4, 0x0000, 0x0020, 0x057f, 0x0000, 0x0000,
   0x0000, 0x0000, 0x0000, 0x0000, 0x0000, 0x0000, 0x0000, 0x0000, 0x0000,
   0x0000, 0x0008, 0x0000, 0x0080, 0x087f, 0x0000, 0x0000, 0x0000, 0x0000,
   0x0000, 0x0000, 0x0000, 0x0000, 0x0000, 0x0000, 0x0000, 0x0000, 0x00a0,
   0x0000, 0x0000, 0x02be, 0x0000, 0x0000, 0x0000, 0x0000, 0x0000, 0x0000,
   0x0000, 0x0000, 0x0000, 0x0000, 0x0000, 0x0000, 0x0090, 0x0000, 0x0080,
   0x093c, 0x0000, 0x0000, 0x00b4, 0x0000, 0x0000, 0x0000, 0x0000, 0x0000,
   0x0000, 0x1680, 0x0000, 0x0000, 0x0240, 0x0000, 0x0040, 0x0258, 0x0000,
   0xe000, 0x3fff, 0x0000, 0x0000, 0x0000, 0x0000, 0x0000, 0x0000, 0xfffc,
   0x0007, 0x0000, 0x0080, 0x0000, 0x0100, 0x0480, 0x0000, 0xfc00, 0xffff,
   0x0000, 0x0000, 0x0000, 0x0000, 0x0000, 0x0000, 0xffff, 0x003f, 0x0000,
   0x0520, 0x0000, 0x0000, 0x0090, 0x0000, 0xff00, 0xffff, 0x0007, 0x0000,
   0x0000, 0x0000, 0x0000, 0xe000, 0xffff, 0x00ff, 0x0000, 0x0120, 0x0000,
   0x0100, 0x0240, 0x0000, 0xffc0, 0xffff, 0x000f, 0x0000, 0x0000, 0x0000,
   0x0000, 0xf000, 0xffff, 0x07ff, 0x0000, 0x0480, 0x0000, 0x0100, 0x0090,
   0x0000, 0xfff8, 0xffff, 0x003f, 0x0000, 0x0000, 0x0000, 0x0000, 0xfc00,
   0xffff, 0x0fff, 0x0000, 0x0480, 0x0000, 0x0200, 0x0040, 0x0000, 0xfffc,
   0xffff, 0x007f, 0x0000, 0x0000, 0x0000, 0x0000, 0xfe00, 0xffff, 0x3fff,
   0x0000, 0x1200, 0x0000, 0x0200, 0x0090, 0x0000, 0xfffe, 0xffff, 0x01ff,
   0x0000, 0x0000, 0x0000, 0x0000, 0xff80, 0xffff, 0x7fff, 0x0000, 0x0480,
   0x0000, 0x0800, 0x0048, 0x8000, 0xffff, 0xffff, 0x03ff, 0x0000, 0x0000,
   0x0000, 0x0000, 0xffc0, 0xffff, 0xffff, 0x0001, 0x1200, 0x0000, 0x0200,
   0x0048, 0xc000, 0xffff, 0xffff, 0x07ff, 0x0000, 0x0000, 0x0000, 0x0000,
   0xffe0, 0xffff, 0xffff, 0x0003, 0x0400, 0x0000, 0x0800, 0x0010, 0xe000,
   0xffff, 0xffff, 0x0fff, 0x0000, 0x0000, 0x0000, 0x0000, 0xfff0, 0xffff,
   0xffff, 0x0007, 0x1200, 0x0000, 0x1000, 0x0052, 0xf800, 0xffff, 0xffff,
   0x1fff, 0x0000, 0x0000, 0x0000, 0x0000, 0xfff0, 0xffff, 0xffff, 0x000f,
   0x1400, 0x0000, 0x2000, 0x0004, 0xf800, 0xffff, 0xffff, 0x1fff, 0x0000,
   0x0000, 0x0000, 0x0000, 0xfff8, 0xffff, 0xffff, 0x003f, 0x2000, 0x0000,
   0x4800, 0x0028, 0xfe00, 0xffff, 0xffff, 0x3fff, 0x0000, 0x0000, 0x0000,
   0x0000, 0xfffc, 0xffff, 0xffff, 0x003f, 0x2400, 0x0000, 0x2000, 0x0005,
   0xfe00, 0xffff, 0xffff, 0x7fff, 0x0000, 0x0000, 0x0000, 0x0000, 0xfffe,
   0xffff, 0xffff, 0x00ff, 0x4800, 0x0000, 0x2000, 0x0014, 0xff80, 0xffff,
   0xffff, 0x7fff, 0x0000, 0x0000, 0x0000, 0x0000, 0xfffe, 0xffff, 0xffff,
   0x00ff, 0x4800, 0x0000, 0x4000, 0x0011, 0xff80, 0xffff, 0xffff, 0xffff,
   0x0000, 0x0000, 0x0000, 0x0000, 0xffff, 0xffff, 0xffff, 0x01ff, 0x2000,
   0x0000, 0x4000, 0x0004, 0xffc0, 0xffff, 0xffff, 0xffff, 0x0000, 0x0000,
   0x0000, 0x8000, 0xffff, 0xffff, 0xffff, 0x03ff, 0x4800, 0x0000, 0x0000,
   0x0009, 0xffe0, 0xffff, 0xffff, 0xffff, 0x0001, 0x0000, 0x0000, 0x8000,
   0xffff, 0xffff, 0xffff, 0x07ff, 0x2000, 0x0001, 0x0000, 0x0009, 0xffe0,
   0xffff, 0xffff, 0xffff, 0x0001, 0x0000, 0x0000, 0x8000, 0xffff, 0xffff,
   0xffff, 0x0fff, 0x4000, 0x0000, 0x0000, 0x0002, 0xfff0, 0xffff, 0xffff,
   0xffff, 0x0003, 0x0000, 0x0000, 0xc000, 0xffff, 0xffff, 0xffff, 0x0fff,
   0x9000, 0x0000, 0x8000, 0x0004, 0xfff8, 0xffff, 0xffff, 0xffff, 0x0003,
   0x0000, 0x0000, 0xc000, 0xffff, 0xffff, 0xffff, 0x1fff, 0x2000, 0x0001,
   0x0000, 0x0001, 0xfffc, 0xffff, 0xffff, 0xffff, 0x0007, 0x0000, 0x0000,
   0xe000, 0xffff, 0xffff, 0xffff, 0x3fff, 0x4000, 0x0002, 0x2000, 0x0005,
   0xfffc, 0xffff, 0xc1ff, 0xffff, 0x0007, 0x0000, 0x0000, 0xe000, 0xffff,
   0xff07, 0xffff, 0x3fff, 0x8000, 0x0000, 0x4000, 0x0000, 0xfffe, 0xffff,
   0x003f, 0xffff, 0x0007, 0x0000, 0x0000, 0xe000, 0xffff, 0xfc00, 0xffff,
   0x7fff, 0x2000, 0x0005, 0x8000, 0x0002, 0xfffe, 0xffff, 0x000f, 0xfffe,
   0x000f, 0x0000, 0x0000, 0xf000, 0x3fff, 0xf000, 0xffff, 0x7fff, 0x4000,
   0x0000, 0x4000, 0x0002, 0xffff, 0xffff, 0x0007, 0xfff8, 0x000f, 0x0000,
   0x0000, 0xf000, 0x3fff, 0xe000, 0xffff, 0xffff, 0x8000, 0x0002, 0x9000,
   0x8000, 0xffff, 0xffff, 0x0003, 0xfff8, 0x000f, 0x0000, 0x0000, 0xf000,
   0x1fff, 0xc000, 0xffff, 0xffff, 0x0000, 0x0002, 0x4000, 0x8002, 0xffff,
   0xffff, 0x0001, 0xfff0, 0x001f, 0x0000, 0x0000, 0xf800, 0x0fff, 0x8000,
   0xffff, 0xffff, 0x4001, 0x0009, 0x9000, 0x8000, 0xffff, 0xffff, 0x0000,
   0xfff0, 0x001f, 0x0000, 0x0000, 0xf800, 0x07ff, 0x8000, 0xffff, 0xffff,
   0x0001, 0x0002, 0x4000, 0xc002, 0xffff, 0xffff, 0x0000, 0xffe0, 0x001f,
   0x0000, 0x0000, 0xf800, 0x07ff, 0x0000, 0xffff, 0xffff, 0x8003, 0x0004,
   0x4000, 0xc000, 0xffff, 0x7fff, 0x0000, 0xffe0, 0x001f, 0x0000, 0x0000,
   0xf800, 0x07ff, 0x0000, 0xfffe, 0xffff, 0x8003, 0x0004, 0x9000, 0xe000,
   0xffff, 0x7fff, 0x0000, 0xffc0, 0x001f, 0x0000, 0x0000, 0xf800, 0x03ff,
   0x0000, 0xfffe, 0xffff, 0x0007, 0x0012, 0x9000, 0xe000, 0xffff, 0x3fff,
   0x0000, 0xffc0, 0x001f, 0x0000, 0x0000, 0xfc00, 0x03ff, 0x0000, 0xfffe,
   0xffff, 0x0007, 0x0002, 0x2000, 0xf001, 0xffff, 0x3fff, 0x0000, 0xffc0,
   0x003f, 0x0000, 0x0000, 0xf800, 0x03ff, 0x0000, 0xfffc, 0xffff, 0x800f,
   0x0008, 0x2000, 0xf000, 0xffff, 0x3fff, 0x0000, 0xffc0, 0x001f, 0x0000,
   0x0000, 0xfc00, 0x03ff, 0x0000, 0xfffc, 0xffff, 0x000f, 0x000a, 0x9000,
   0xf000, 0xffff, 0x3fff, 0x0000, 0xffc0, 0x003f, 0x0000, 0x0000, 0xfc00,
   0x03ff, 0x0000, 0xfffc, 0xffff, 0x000f, 0x0001, 0x2000, 0xf800, 0xffff,
   0x3fff, 0x0000, 0xffc0, 0x003f, 0x0000, 0x0000, 0xfc00, 0x03ff, 0x0000,
   0xfffc, 0xffff, 0x001f, 0x000a, 0x4800, 0xf800, 0xffff, 0x1fff, 0x0000,
   0xffc0, 0x001f, 0x0000, 0x0000, 0xfc00, 0x03ff, 0x0000, 0xfff8, 0xffff,
   0x001f, 0x0024, 0x4800, 0xf800, 0xffff, 0x1fff, 0x0000, 0xffc0, 0x003f,
   0x0000, 0x0000, 0xfc00, 0x03ff, 0x0000, 0xfffc, 0xffff, 0x001f, 0x0009,
   0x9000, 0xf800, 0xffff, 0x3fff, 0x0000, 0xffe0, 0x003f, 0x0000, 0x0000,
   0xfc00, 0x07ff, 0x0000, 0xfff8, 0xffff, 0x001f, 0x0024, 0x1000, 0xfc00,
   0xffff, 0x3fff, 0x0000, 0xffe0, 0x003f, 0x0000, 0x0000, 0xfc00, 0x07ff,
   0x0000, 0xfffc, 0xffff, 0x003f, 0x0008, 0x4800, 0xfc00, 0xffff, 0x3fff,
   0x0000, 0xffe0, 0x001f, 0x0000, 0x0000, 0xfc00, 0x07ff, 0x0000, 0xfffc,
   0xffff, 0x003f, 0x0022, 0x1000, 0xfc00, 0xffff, 0x3fff, 0x0000, 0xfff0,
   0x003f, 0x0000, 0x0000, 0xfc00, 0x07ff, 0x0000, 0xfffc, 0xffff, 0x003f,
   0x000a, 0x4800, 0xfc00, 0xffff, 0x3fff, 0x0000, 0xfff0, 0x001f, 0x0000,
   0x0000, 0xf800, 0x0fff, 0x0000, 0xfffc, 0xffff, 0x003f, 0x0010, 0x1200,
   0xfe00, 0xffff, 0x7fff, 0x0000, 0xfff0, 0x001f, 0x0000, 0x0000, 0xfc00,
   0x0fff, 0x0000, 0xfffe, 0xffff, 0x003f, 0x0012, 0x4800, 0xfe00, 0xffff,
   0x7fff, 0x0000, 0xfff8, 0x001f, 0x0000, 0x0000, 0xf800, 0x1fff, 0x0000,
   0xfffe, 0xffff, 0x007f, 0x0024, 0x1200, 0xfe00, 0xffff, 0xffff, 0x0000,
   0xfffc, 0x001f, 0x0000, 0x0000, 0xf800, 0x3fff, 0x0000, 0xffff, 0xffff,
   0x007f, 0x0024, 0x4800, 0xfe00, 0xffff, 0xffff, 0x0000, 0xfffe, 0x001f,
   0x0000, 0x0000, 0xf800, 0x7fff, 0x0000, 0xffff, 0xffff, 0x007f, 0x0010,
   0x1200, 0xfe00, 0xffff, 0xffff, 0x0001, 0xffff, 0x001f, 0x0000, 0x0000,
   0xf800, 0xffff, 0xc000, 0xffff, 0xffff, 0x007f, 0x0024, 0x4800, 0xfe00,
   0xffff, 0xffff, 0x8007, 0xffff, 0x001f, 0x0000, 0x0000, 0xf800, 0xffff,
   0xc001, 0xffff, 0xffff, 0x007f, 0x0008, 0x1000, 0xfe00, 0xffff, 0xffff,
   0xe00f, 0xffff, 0x000f, 0x0000, 0x0000, 0xf800, 0xffff, 0xf007, 0xffff,
   0xffff, 0x007f, 0x0028, 0x4400, 0xfe00, 0xffff, 0xffff, 0xfd7f, 0xffff,
   0x001f, 0x0000, 0x0000, 0xf000, 0xffff, 0xfebf, 0xffff, 0xffff, 0x007f,
   0x0044, 0x1400, 0xfe00, 0xffff, 0xffff, 0xffff, 0xffff, 0x000f, 0x0000,
   0x0000, 0xf000, 0xffff, 0xffff, 0xffff, 0xffff, 0x007f, 0x0010, 0x2000,
   0xfe00, 0xffff, 0xffff, 0xffff, 0xffff, 0x000f, 0x0000, 0x0000, 0xf000,
   0xffff, 0xffff, 0xffff, 0xffff, 0x007f, 0x0024, 0x0a00, 0xff00, 0xffff,
   0xffff, 0xffff, 0xffff, 0x000f, 0x0000, 0x0000, 0xf000, 0xffff, 0xffff,
   0xffff, 0xffff, 0x007f, 0x0008, 0x5000, 0xfe00, 0xffff, 0xffff, 0xffff,
   0xffff, 0x0007, 0x0000, 0x0000, 0xe000, 0xffff, 0xffff, 0xffff, 0xffff,
   0x00ff, 0x0024, 0x0400, 0xff00, 0xffff, 0xffff, 0xffff, 0xffff, 0x0007,
   0x0000, 0x0000, 0xe000, 0xffff, 0xffff, 0xffff, 0xffff, 0x007f, 0x0024,
   0x2800, 0xfe00, 0xffff, 0xffff, 0xffff, 0xffff, 0x0007, 0x0000, 0x0000,
   0xe000, 0xffff, 0xffff, 0xffff, 0xffff, 0x007f, 0x0008, 0x0800, 0xfe00,
   0xffff, 0xffff, 0xffff, 0xffff, 0x0003, 0x0000, 0x0000, 0xe000, 0xffff,
   0xffff, 0xffff, 0xffff, 0x007f, 0x0028, 0x2400, 0xfe00, 0xffff, 0xffff,
   0xffff, 0xffff, 0x0003, 0x0000, 0x0000, 0xc000, 0xffff, 0xffff, 0xffff,
   0xffff, 0x007f, 0x0020, 0x0800, 0xfe00, 0xffff, 0xffff, 0xffff, 0xffff,
   0x0003, 0x0000, 0x0000, 0xc000, 0xffff, 0xffff, 0xffff, 0xffff, 0x007f,
   0x000a, 0x2400, 0xfe00, 0xffff, 0xffff, 0xffff, 0xffff, 0x0001, 0x0000,
   0x0000, 0x8000, 0xffff, 0xffff, 0xffff, 0xffff, 0x007f, 0x0050, 0x1000,
   0xfe00, 0xffff, 0xffff, 0xffff, 0xffff, 0x0001, 0x0000, 0x0000, 0x8000,
   0xffff, 0xffff, 0xffff, 0xffff, 0x007f, 0x000a, 0x2400, 0xfe00, 0xffff,
   0xffff, 0xffff, 0xffff, 0x0000, 0x0000, 0x0000, 0x0000, 0xffff, 0xffff,
   0xffff, 0xffff, 0x007f, 0x0050, 0x0800, 0xfe00, 0xffff, 0xffff, 0xffff,
   0xffff, 0x0000, 0x0000, 0x0000, 0x0000, 0xffff, 0xffff, 0xffff, 0xffff,
   0x003f, 0x0004, 0x2400, 0xfc00, 0xffff, 0xffff, 0xffff, 0xffff, 0x0000,
   0x0000, 0x0000, 0x0000, 0xffff, 0xffff, 0xffff, 0xffff, 0x003f, 0x0028,
   0x2400, 0xfc00, 0xffff, 0xffff, 0xffff, 0x7fff, 0x0000, 0x0000, 0x0000,
   0x0000, 0xfffe, 0xffff, 0xffff, 0xffff, 0x003f, 0x0022, 0x0800, 0xfc00,
   0xffff, 0xffff, 0xffff, 0x3fff, 0x0000, 0xfffc, 0x3fff, 0x0000, 0xfffe,
   0xffff, 0xffff, 0xffff, 0x003f, 0x0008, 0x2800, 0xfc00, 0xffff, 0xffff,
   0xffff, 0x3fff, 0x0000, 0xffff, 0xffff, 0x0000, 0xfffc, 0xffff, 0xffff,
   0xffff, 0x001f, 0x0028, 0x4400, 0xf800, 0xffff, 0xffff, 0xffff, 0x1fff,
   0x8000, 0xffff, 0xffff, 0x0001, 0xfff8, 0xffff, 0xffff, 0xffff, 0x001f,
   0x0042, 0x1000, 0xf800, 0xffff, 0xffff, 0xffff, 0x1fff, 0xc000, 0xffff,
   0xffff, 0x0003, 0xfff8, 0xffff, 0xffff, 0xffff, 0x001f, 0x0014, 0x2400,
   0xf800, 0xffff, 0xffff, 0xffff, 0x0fff, 0xe000, 0x7777, 0xff77, 0x0007,
   0xfff0, 0xffff, 0xffff, 0xffff, 0x001f, 0x0048, 0x2400, 0xf000, 0xffff,
   0xffff, 0xffff, 0x0fff, 0xe000, 0xffff, 0xffff, 0x0007, 0xfff0, 0xffff,
   0xffff, 0xffff, 0x000f, 0x0012, 0x1000, 0xf000, 0xffff, 0xffff, 0xffff,
   0x07ff, 0xe000, 0xffff, 0xffff, 0x0007, 0xffe0, 0xffff, 0xffff, 0xffff,
   0x000f, 0x0008, 0x4400, 0xe000, 0xffff, 0xffff, 0xffff, 0x03ff, 0xe000,
   0xffff, 0xffff, 0x0007, 0xffc0, 0xffff, 0xffff, 0xffff, 0x0007, 0x0012,
   0x2800, 0xe000, 0xffff, 0xffff, 0xffff, 0x03ff, 0xe000, 0xffff, 0xffff,
   0x0007, 0xff80, 0xffff, 0xffff, 0xffff, 0x0007, 0x0008, 0x4000, 0xe000,
   0xffff, 0xffff, 0xffff, 0x00ff, 0xe000, 0xffff, 0xffff, 0x0007, 0xff80,
   0xffff, 0xffff, 0xffff, 0x0003, 0x0012, 0x2800, 0xc000, 0xffff, 0xffff,
   0xffff, 0x00ff, 0xc000, 0xffff, 0xffff, 0x0003, 0xff00, 0xffff, 0xffff,
   0xffff, 0x0003, 0x0004, 0x4400, 0x8000, 0xffff, 0xffff, 0xffff, 0x007f,
   0xc000, 0xffff, 0xffff, 0x0003, 0xfe00, 0xffff, 0xffff, 0xffff, 0x0001,
   0x0014, 0x9000, 0x8000, 0xffff, 0xffff, 0xffff, 0x003f, 0x8000, 0xffff,
   0xffff, 0x0001, 0xfc00, 0xffff, 0xffff, 0xffff, 0x0001, 0x0011, 0x2000,
   0x0000, 0xffff, 0xffff, 0xffff, 0x001f, 0x0000, 0xffff, 0xffff, 0x0000,
   0xfc00, 0xffff, 0xffff, 0xffff, 0x0000, 0x0005, 0x9000, 0x0000, 0xfffe,
   0xffff, 0xffff, 0x000f, 0x0000, 0xfffe, 0x7fff, 0x0000, 0xf000, 0xffff,
   0xffff, 0x7fff, 0x0000, 0x0008, 0x2000, 0x0000, 0xfffe, 0xffff, 0xffff,
   0x0007, 0x0000, 0xfffc, 0x3fff, 0x0000, 0xe000, 0xffff, 0xffff, 0x7fff,
   0x0000, 0x0009, 0x9000, 0x0000, 0xfffc, 0xffff, 0xffff, 0x0003, 0x0000,
   0xfff0, 0x1fff, 0x0000, 0xc000, 0xffff, 0xffff, 0x3fff, 0x0000, 0x0001,
   0xa000, 0x0000, 0xfff8, 0xffff, 0xffff, 0x0001, 0x0000, 0xffe0, 0x07ff,
   0x0000, 0x8000, 0xffff, 0xffff, 0x1fff, 0x0000, 0x000a, 0x0000, 0x0001,
   0xfff0, 0xffff, 0xffff, 0x0000, 0x0000, 0xff00, 0x00ff, 0x0000, 0x0000,
   0xffff, 0xffff, 0x0fff, 0x8000, 0x0004, 0x5000, 0x0000, 0xffe0, 0xffff,
   0x3fff, 0x0000, 0x0000, 0xf000, 0x001f, 0x0000, 0x0000, 0xfffe, 0xffff,
   0x07ff, 0x0000, 0x0001, 0x4000, 0x0001, 0xffc0, 0xffff, 0x1fff, 0x0000,
   0x0000, 0xe000, 0x0007, 0x0000, 0x0000, 0xfff8, 0xffff, 0x03ff, 0x4000,
   0x000a, 0x1000, 0x0001, 0xff80, 0xffff, 0x07ff, 0x0000, 0x0000, 0xf000,
   0x000f, 0x0000, 0x0000, 0xfff0, 0xffff, 0x00ff, 0x8000, 0x0000, 0x4000,
   0x0002, 0xfe00, 0xffff, 0x03ff, 0x0000, 0x0000, 0xf000, 0x000f, 0x0000,
   0x0000, 0xffc0, 0xffff, 0x007f, 0x4000, 0x0002, 0x8000, 0x0000, 0xfc00,
   0xffff, 0x00ff, 0x0000, 0x0000, 0xf800, 0x001f, 0x0000, 0x0000, 0xff00,
   0xffff, 0x001f, 0x8000, 0x0002, 0x4000, 0x0002, 0xe000, 0xffff, 0x003f,
   0x0000, 0x0000, 0xfc00, 0x001f, 0x0000, 0x0000, 0xfc00, 0xffff, 0x0007,
   0x2000, 0x0004, 0x8000, 0x0004, 0x8000, 0xffff, 0x0007, 0x0000, 0x0000,
   0xfc00, 0x003f, 0x0000, 0x0000, 0xe000, 0xffff, 0x0001, 0xa000, 0x0000,
   0x0000, 0x0009, 0x0000, 0x7ff4, 0x0000, 0x0000, 0x0000, 0xfe00, 0x007f,
   0x8000, 0x0000, 0x0000, 0x1ffd, 0x0000, 0x8000, 0x0002, 0x4000, 0x0002,
   0x0000, 0x0000, 0x0000, 0x0000, 0x0001, 0xff00, 0x00ff, 0xe000, 0x0003,
   0x0000, 0x0000, 0x0000, 0x2000, 0x0000, 0x0000, 0x0009, 0x0000, 0x0000,
   0x0000, 0xc000, 0x0003, 0xff80, 0x03ff, 0xf000, 0x0003, 0x0000, 0x0000,
   0x0000, 0x4800, 0x0001, 0x0000, 0x0009, 0x0000, 0x0000, 0x0000, 0xc000,
   0x000f, 0xffe0, 0x07ff, 0xf800, 0x0003, 0x0000, 0x0000, 0x0000, 0x1000,
   0x0000, 0x0000, 0x0004, 0x0000, 0x0000, 0x0000, 0xc000, 0x003f, 0xfff8,
   0x3fff, 0xff00, 0x0001, 0x0000, 0x0000, 0x0000, 0xa000, 0x0000, 0x0000,
   0x0014, 0x0000, 0x0000, 0x0000, 0x8000, 0x02ff, 0xffff, 0xffff, 0xffff,
   0x0000, 0x0000, 0x0000, 0x0000, 0x2400, 0x0000, 0x0000, 0x0022, 0x0000,
   0x0000, 0x0000, 0x0000, 0xffff, 0xffff, 0xffff, 0x3fff, 0x0000, 0x0000,
   0x0000, 0x0000, 0x4800, 0x0000, 0x0000, 0x0008, 0x0000, 0x0000, 0x0000,
   0x0000, 0xfffc, 0xffff, 0xffff, 0x1fff, 0x0000, 0x0000, 0x0000, 0x0000,
   0x1200, 0x0000, 0x0000, 0x0024, 0x0000, 0x0000, 0x0000, 0x0000, 0xfff8,
   0xffff, 0xffff, 0x07ff, 0x0000, 0x0000, 0x0000, 0x0000, 0x4800, 0x0000,
   0x0000, 0x0048, 0x0000, 0x0000, 0x0000, 0x0000, 0xffc0, 0xffff, 0xffff,
   0x007f, 0x0000, 0x0000, 0x0000, 0x0000, 0x1200, 0x0000, 0x0000, 0x0090,
   0x0000, 0x0000, 0x0000, 0x0000, 0xfe00, 0xffff, 0xffff, 0x003f, 0x0000,
   0x0000, 0x0000, 0x0000, 0x0900, 0x0000, 0x0000, 0x0024, 0x0000, 0x0000,
   0x0000, 0x0000, 0xfc00, 0xffff, 0xffff, 0x003f, 0x0000, 0x0000, 0x0000,
   0x0000, 0x1100, 0x0000, 0x0000, 0x0290, 0x0000, 0x0000, 0x0000, 0x0000,
   0xfc00, 0xffff, 0xffff, 0x007f, 0x0000, 0x0000, 0x0000, 0x0000, 0x0a00,
   0x0000, 0x0000, 0x0040, 0x0000, 0x0000, 0x0000, 0x0000, 0xfc00, 0xffff,
   0xffff, 0x003f, 0x0000, 0x0000, 0x0000, 0x0000, 0x00a0, 0x0000, 0x0000,
   0x0290, 0x0000, 0x0000, 0x0000, 0x0000, 0xfc00, 0xffff, 0xffff, 0x003f,
   0x0000, 0x0000, 0x0000, 0x0000, 0x0500, 0x0000, 0x0000, 0x0420, 0x0000,
   0x0000, 0x0000, 0x0000, 0xfc00, 0xffff, 0xffff, 0x003f, 0x0000, 0x0000,
   0x0000, 0x0000, 0x0240, 0x0000, 0x0000, 0x0940, 0x0000, 0x0000, 0x0000,
   0x1100, 0xf800, 0xffff, 0xffff, 0x001f, 0x0000, 0x0000, 0x0000, 0x0000,
   0x0090, 0x0000, 0x0000, 0x1100, 0x1000, 0x0002, 0x0000, 0x0000, 0xf811,
   0xffff, 0xfffe, 0x081f, 0x0000, 0x8000, 0x0008, 0x0000, 0x0120, 0x0000,
   0x0000, 0x0480, 0x0084, 0x0020, 0x4102, 0x0004, 0xf800, 0x87ff, 0xffd2,
   0x801f, 0x4100, 0x0110, 0x0080, 0x2080, 0x0094, 0x0000, 0x0000, 0x5480,
   0x0000, 0x1100, 0x0008, 0x0000, 0xf080, 0xb4ff, 0xff54, 0x004f, 0x0010,
   0x0800, 0x8800, 0x0008, 0x0090, 0x0000, 0x0000, 0x2200, 0x0000, 0x0000,
   0x0000, 0x0020, 0xf000, 0x457f, 0xfd25, 0x000f, 0x0000, 0x0000, 0x0000,
   0x0000, 0x0022, 0x0000, 0x0000, 0x8800, 0x8800, 0x0000, 0x0400, 0x2200,
   0xe000, 0x2d5f, 0xf955, 0x8007, 0x0400, 0x0001, 0x0000, 0x0200, 0x004a,
   0x0000, 0x0000, 0x5200, 0x0088, 0x0000, 0x8080, 0x0000, 0xe201, 0x512f,
   0xf529, 0x0107, 0x0000, 0x2020, 0x0011, 0x2000, 0x0010, 0x0000, 0x0000,
   0x0400, 0x0001, 0x2224, 0x0004, 0x0000, 0xc010, 0xaaa7, 0xc552, 0x0403,
   0x1042, 0x0000, 0x1100, 0x8021, 0x0012, 0x0000, 0x0000, 0xa800, 0x0000,
   0x0000, 0x1000, 0x0022, 0x8000, 0x252b, 0xda55, 0x0001, 0x0000, 0x0082,
   0x0000, 0x4000, 0x0022, 0x0000, 0x0000, 0x9000, 0x440a, 0x0000, 0x0000,
   0x0800, 0x0001, 0x5555, 0x9295, 0x0010, 0x0000, 0x0200, 0x0010, 0x8200,
   0x0004, 0x0000, 0x0000, 0x4000, 0x0040, 0x4400, 0x0088, 0x0080, 0x0220,
   0x4a52, 0x2a52, 0x2400, 0x2084, 0x2000, 0x0202, 0x1021, 0x0009, 0x0000,
   0x0000, 0x8000, 0x000a, 0x0044, 0x0000, 0x0002, 0x1000, 0xa948, 0x24aa,
   0x0040, 0x0000, 0x0008, 0x1000, 0x5000, 0x0002, 0x0000, 0x0000, 0x0000,
   0x8409, 0x0000, 0x1201, 0x0800, 0x0001, 0x5550, 0x1552, 0x8000, 0x0210,
   0x0001, 0x0020, 0x8402, 0x0000, 0x0000, 0x0000, 0x4000, 0x0052, 0x0400,
   0x0010, 0x1088, 0x8088, 0x4920, 0x8295, 0x0004, 0x0000, 0x2240, 0x0000,
   0x9440, 0x0000, 0x0000, 0x0000, 0x0000, 0x1049, 0x2008, 0x2000, 0x0000,
   0x0400, 0xaa80, 0x0052, 0x0240, 0x0800, 0x0000, 0x1081, 0x1008, 0x0001,
   0x0000, 0x0000, 0x0000, 0x0149, 0x0080, 0x0081, 0x8001, 0x0000, 0x2802,
   0x0095, 0x1000, 0x8091, 0x0008, 0x0104, 0x2500, 0x0000, 0x0000, 0x0000,
   0x0000, 0x4224, 0x0010, 0x0408, 0x0088, 0x0824, 0x0000, 0x8400, 0x0008,
   0x1000, 0x0480, 0x2000, 0x5241, 0x0000, 0x0000, 0x0000, 0x0000, 0x0488,
   0x0801, 0x0000, 0x1200, 0x4000, 0x4088, 0x0800, 0x2100, 0x0000, 0x2001,
   0x0008, 0x0488, 0x0000, 0x0000, 0x0000, 0x0000, 0x0920, 0x4240, 0x4810,
   0x0010, 0x0040, 0x0000, 0x0022, 0x0020, 0x0089, 0x0008, 0x0481, 0x0920,
   0x0000, 0x0000, 0x0000, 0x0000, 0x2240, 0x0004, 0x0081, 0x8001, 0x0904,
   0x0901, 0x4040, 0x0402, 0x1100, 0x0440, 0x4000, 0x0248, 0x0000, 0x0000,
   0x0000, 0x0000, 0x9480, 0x0000, 0x0000, 0x0440, 0x0000, 0x4008, 0x0400,
   0x0000, 0x8000, 0x2000, 0x0008, 0x0125, 0x0000, 0x0000, 0x0000, 0x0000,
   0x2100, 0x0840, 0x0810, 0x1004, 0x2010, 0x0010, 0x0004, 0x4888, 0x0012,
   0x0084, 0x0880, 0x0048, 0x0000, 0x0000, 0x0000, 0x0000, 0x4a00, 0x4209,
   0x4082, 0x8000, 0x0080, 0x0880, 0x8841, 0x0000, 0x0480, 0x8000, 0x4010,
   0x0011, 0x0000, 0x0000, 0x0000, 0x0000, 0x4800, 0x0002, 0x0000, 0x0120,
   0x0400, 0x0001, 0x0000, 0x0010, 0x4000, 0x0908, 0x0100, 0x0025, 0x0000,
   0x0000, 0x0000, 0x0000, 0x9000, 0x0014, 0x8108, 0x0808, 0x2011, 0x2100,
   0x1088, 0x8880, 0x0808, 0x0000, 0xa801, 0x0008, 0x0000, 0x0000, 0x0000,
   0x0000, 0x1000, 0x88a1, 0x0800, 0x0000, 0x0080, 0x0012, 0x4000, 0x0002,
   0x0080, 0x1021, 0x1010, 0x0002, 0x0000, 0x0000, 0x0000, 0x0000, 0x4000,
   0x020a, 0x0210, 0x1040, 0x0402, 0x4200, 0x0100, 0x2110, 0x2010, 0x0100,
   0x4a82, 0x0001, 0x0000, 0x0000, 0x0000, 0x0000, 0x8000, 0x00a8, 0x8001,
   0x0104, 0x4010, 0x0020, 0x0012, 0x0000, 0x0201, 0x2004, 0x2200, 0x0001,
   0x0000, 0x0000, 0x0000, 0x0000, 0x0000, 0x1522, 0x0820, 0x2000, 0x1080,
   0x8402, 0x9200, 0x0200, 0x0000, 0x0420, 0x94a8, 0x0000, 0x0000, 0x0000,
   0x0000, 0x0000, 0x0000, 0x2224, 0x1042, 0x0210, 0x0002, 0x0040, 0x0020,
   0x2024, 0x9048, 0x0000, 0x1121, 0x0000, 0x0000, 0x0000, 0x0000, 0x0000,
   0x0000, 0x9490, 0x8000, 0x4000, 0x0100, 0x0804, 0x0004, 0x0400, 0x0201,
   0x2084, 0x024a, 0x0000, 0x0000, 0x0000, 0x0000, 0x0000, 0x0000, 0x2120,
   0x0104, 0x0421, 0x4010, 0x4080, 0x9200, 0x0040, 0x0000, 0x8200, 0x0448,
   0x0000, 0x0000, 0x0000, 0x0000, 0x0000, 0x0000, 0x4a00, 0x1009, 0x0000,
   0x1201, 0x0010, 0x0090, 0x1004, 0x4824, 0x2808, 0x0091, 0x0000, 0x0000,
   0x0000, 0x0000, 0x0000, 0x0000, 0x4800, 0x0152, 0x1084, 0x0022, 0x0801,
   0x0001, 0x4100, 0x0080, 0x2020, 0x0025, 0x0000, 0x0000, 0x0000, 0x0000,
   0x0000, 0x0000, 0x9000, 0x0424, 0x0021, 0x0000, 0x0240, 0x2400, 0x0008,
   0x8000, 0x8a80, 0x0008, 0x0000, 0x0000, 0x0000, 0x0000, 0x0000, 0x0000,
   0x9000, 0x2944, 0x2200, 0x2480, 0x2004, 0x8048, 0x0820, 0x0909, 0x2928,
   0x0002, 0x0000, 0x0000, 0x0000, 0x0000, 0x0000, 0x0000, 0x0000, 0x4212,
   0x0004, 0x0009, 0x8000, 0x0000, 0x0080, 0x4000, 0x4245, 0x0001, 0x0000,
   0x0000, 0x0000, 0x0000, 0x0000, 0x0000, 0x0000, 0x4a52, 0x0449, 0x8010,
   0x0490, 0x1201, 0x2104, 0x1020, 0x1448, 0x0000, 0x0000, 0x0000, 0x0000,
   0x0000, 0x0000, 0x0000, 0x0000, 0x0840, 0x2112, 0x0480, 0x0004, 0x8048,
   0x0800, 0x4a81, 0x0925, 0x0000, 0x0000, 0x0000, 0x0000, 0x0000, 0x0000,
   0x0000, 0x0000, 0x5280, 0x0852, 0x2001, 0x1000, 0x0000, 0x0008, 0x912a,
   0x0124, 0x0000, 0x0000, 0x0000, 0x0000, 0x0000, 0x0000, 0x0000, 0x0000,
   0x2400, 0x5281, 0x0814, 0x8090, 0x0480, 0x5040, 0x4a40, 0x0048, 0x0000,
   0x0000, 0x0000, 0x0000, 0x0000, 0x0000, 0x0000, 0x0000, 0x2000, 0x4495,
   0x2151, 0x0201, 0x2008, 0x4509, 0x9095, 0x0002, 0x0000, 0x0000, 0x0000,
   0x0000, 0x0000, 0x0000, 0x0000, 0x0000, 0x0000, 0x0924, 0x4a45, 0x284a,
   0x9521, 0x88a4, 0x4a44, 0x0000, 0x0000, 0x0000, 0x0000, 0x0000, 0x0000,
   0x0000, 0x0000, 0x0000, 0x0000, 0x5220, 0x8890, 0x4548, 0x904a, 0x2924,
   0x0111, 0x0000, 0x0000, 0x0000, 0x0000, 0x0000, 0x0000, 0x0000, 0x0000,
   0x0000, 0x0000, 0x2400, 0x5125, 0x2812, 0x2291, 0x8492, 0x00a4, 0x0000,
   0x0000, 0x0000, 0x0000, 0x0000, 0x0000, 0x0000, 0x0000, 0x0000, 0x0000,
   0x8000, 0x4524, 0x22a2, 0x4a25, 0x2922, 0x0002, 0x0000, 0x0000, 0x0000,
   0x0000, 0x0000, 0x0000, 0x0000, 0x0000, 0x0000, 0x0000, 0x0000, 0x8890,
   0x4494, 0x9148, 0x0494, 0x0000, 0x0000, 0x0000, 0x0000, 0x0000, 0x0000,
   0x0000, 0x0000, 0x0000, 0x0000, 0x0000, 0x0000, 0x2800, 0x9491, 0x2412,
   0x0001, 0x0000, 0x0000, 0x0000, 0x0000, 0x0000, 0x0000, 0x0000, 0x0000,
   0x0000, 0x0000, 0x0000, 0x0000, 0x0000, 0x0000, 0x0000, 0x0000, 0x0000,
   0x0000, 0x0000, 0x0000, 0x0000, 0x0000, 0x0000, 0x0000, 0x0000, 0x0000,
   0x0000, 0x0000, 0x0000, 0x0000, 0x0000, 0x0000, 0x0000, 0x0000, 0x0000,
   0x0000, 0x0000, 0x0000, 0x0000, 0x0000, 0x0000, 0x0000, 0x0000, 0x0000,
   0x0000, 0x0000, 0x0000, 0x0000, 0x0000, 0x0000, 0x0000, 0x0000, 0x0000,
   0x0000, 0x0000, 0x0000, 0x0000, 0x0000, 0x0000, 0x0000, 0x0000, 0x0000,
   0x0000, 0x0000, 0x0000, 0x0000, 0x0000, 0x0000, 0x0000, 0x0000, 0x0000,
   0x0000, 0x0000, 0x0000, 0x0000, 0x0000, 0x0000, 0x0000, 0x0000, 0x0000,
   0x0000, 0x0000, 0x0000, 0x0000, 0x0000, 0x0000, 0x0000, 0x0000, 0x0000,
   0x0000, 0x0000, 0x0000, 0x0000, 0x0000, 0x0000, 0x0000, 0x0000, 0x0000,
   0x0000, 0x0000, 0x0000, 0x0000, 0x0000, 0x0000, 0x0000, 0x0000, 0x0000,
   0x0000, 0x0000, 0x0000, 0x0000, 0x0000, 0x0000, 0x0000, 0x0000, 0x0000,
   0x0000, 0x0000, 0x0000, 0x0000, 0x0000, 0x0000, 0x0000, 0x0000, 0x0000,
   0x0000, 0x0000, 0x0000, 0x0000, 0x0000, 0x0000, 0x0000, 0x0000, 0x0000,
   0x0000, 0x0000, 0x0000, 0x0000, 0x0000, 0x0000, 0x0000, 0x0000, 0x0000,
   0x0000, 0x0000, 0x0000, 0x0000, 0x0000, 0x0000, 0x0000, 0x0000, 0x0000,
   0x0000, 0x0000, 0x0000, 0x0000, 0x0000, 0x0000, 0x0000, 0x0000, 0x0000,
   0x0000, 0x0000, 0x0000, 0x0000, 0x0000, 0x0000, 0x0000, 0x0000, 0x0000,
   0x0000, 0x0000, 0x0000, 0x0000, 0x0000, 0x0000, 0x0000, 0x0000, 0x0000,
   0x0000, 0x0000, 0x0000, 0x0000, 0x0000, 0x0000, 0x0000, 0x0000, 0x0000,
   0x0000, 0x0000, 0x0000, 0x0000, 0x0000, 0x0000, 0x0000, 0x0000, 0x0000,
   0x0000 };
